<?xml version="1.0" encoding="UTF-8"?>
<svg id="Layer_1" data-name="Layer 1" xmlns="http://www.w3.org/2000/svg" viewBox="0 0 600 600">
  <defs>
    <style>
      .cls-1 {
        fill: #fff;
        fill-rule: evenodd;
      }
    </style>
  </defs>
  <path class="cls-1" d="m242.4,172.67c-12,17.35,1.95,49.49-32.91,115.42-15.9,30.06-41.67,63.75-43.59,105.87-4.03,88.2,36.28,174.7,120.86,177.97,82.66,3.19,153.03-67.05,145.09-150.96-4.11-43.42-17.88-79.97-32.84-115.68-7.15-17.08-16.04-36.36-20.9-54.84-4.16-15.83-2.17-54.6-7.32-64.28-31.92,42.41,36.28,165.56,39.49,218.23,11.12,182.56-261.95,215.84-215.95-24.36,8.17-42.68,17.2-67.29,31.84-103.98,9.75-24.45,38.6-77.67,16.24-103.38h0Zm105.55,25.68l-1.94,25.82c-13.22,8.69-33.85,11.43-52.94,6.93-27.09-6.39-24.68-11.19-25.72-39.56,37.06,11.42,39.19,15.64,80.61,6.81h0Zm-25.32-167.58c31.09,8.31,71.4,36.42,50.46,79.05-6.55,13.33-9.87,6.51-8.53,21.63.96,10.76,4.11,24.13-.3,34.51-10.01,23.57-94.56,24.23-97.38-6.76-1.04-11.43,3.27-16.48.44-30.05-1.88-9-6.3-18.2-8.24-28.27-9.44-49.04,13.17-83.59,63.55-70.12h0Zm-84.31,65.79c-18.7-129.26,173.31-106.08,156.62,3.81-3.24,21.36-13.63,21.56-10.34,45.21,2.64,18.92,5.56,25.92,6.89,50.25,6.99,127.49,126.96,235.58,13.02,349.92-35.62,35.74-107.55,61.68-170.68,34.37-53.48-23.13-73.21-77.2-84.2-145.62-14.15-88.09,24.07-110.24,50.27-171.64,29.71-69.61,12.13-107.48,27.28-116.18,13.66-7.84,12.19,7.37,19.62-4.36,4.37-6.9-6.91-34.87-8.49-45.76Z"/>
</svg>